<svg width="72" height="73" viewBox="0 0 72 73" fill="none" xmlns="http://www.w3.org/2000/svg">
<circle cx="58.5" cy="14.3755" r="13.5" fill="#ABCBEA"/>
<rect x="3" y="9.87549" width="60" height="60" rx="4" fill="#0074BF"/>
<circle cx="6" cy="66.8755" r="6" fill="#1B0405"/>
<path d="M21.3934 58.8755C21.3934 57.6016 21.2563 54.9123 20.7077 54.3462C20.022 53.6385 13.8507 49.8169 13.4393 48.6845C13.0279 47.5522 12.3422 44.8629 11.5193 40.3336C10.6965 35.8043 10.9708 36.0874 11.5193 35.9459C11.9217 35.8421 12.4714 35.5098 13.4393 38.188M14.9002 43.035C14.425 41.1107 13.7911 39.1614 13.4393 38.188M13.4393 38.188C13.8506 37.8652 14.783 37.5311 15.2219 38.7767C15.2854 38.9568 15.3496 39.1471 15.4136 39.3428M16.5 42.8755C16.3436 42.2701 15.7922 40.5005 15.4136 39.3428M15.4136 39.3428C16.1726 39.1541 17.5126 40.0632 18.5 43.6866M18.9247 48.1184C18.9247 48.1184 14.8399 43.7306 14.6733 43.306C14.5067 42.8813 16.9497 42.3152 18.9247 44.0137C21.3934 46.1368 21.3932 46.7029 22.7646 47.4107C24.136 48.1184 26.6046 49.1091 26.8788 52.7892C27.0983 55.7333 26.9703 56.9411 26.8788 57.177" stroke="white"/>
<path d="M44.6066 58.8755C44.6066 57.6016 44.7437 54.9123 45.2923 54.3462C45.978 53.6385 52.1493 49.8169 52.5607 48.6845C52.9721 47.5522 53.6578 44.8629 54.4807 40.3336C55.3035 35.8043 55.0292 36.0874 54.4807 35.9459C54.0783 35.8421 53.5286 35.5098 52.5607 38.188M51 42.9948C51.4752 41.0706 52.2089 39.1614 52.5607 38.188M52.5607 38.188C52.1494 37.8652 51.217 37.5311 50.7781 38.7767C50.7146 38.9568 50.6504 39.1471 50.5864 39.3428M49.3313 42.9316C49.4877 42.3262 50.2078 40.5005 50.5864 39.3428M50.5864 39.3428C49.8274 39.1541 48.4874 40.0632 47.5 43.6866M47.0753 48.1184C47.0753 48.1184 51.1601 43.7306 51.3267 43.306C51.4933 42.8813 49.0503 42.3152 47.0753 44.0137C44.6066 46.1368 44.6068 46.7029 43.2354 47.4107C41.864 48.1184 39.3954 49.1091 39.1212 52.7892C38.9017 55.7333 39.0297 56.9411 39.1212 57.177" stroke="white"/>
<circle cx="33" cy="32.8755" r="11.5" fill="#0074BF" stroke="white"/>
<path d="M41 27.8755L33 31.8498V37.8755" stroke="white"/>
<line x1="33.5" y1="20.8755" x2="33.5" y2="24.8755" stroke="white"/>
<line x1="33.5" y1="40.8755" x2="33.5" y2="44.8755" stroke="white"/>
<line x1="45" y1="33.3755" x2="41" y2="33.3755" stroke="white"/>
<line x1="25" y1="33.3755" x2="21" y2="33.3755" stroke="white"/>
</svg>
