<svg width="50" height="50" viewBox="0 0 50 50" fill="none" xmlns="http://www.w3.org/2000/svg">
<rect width="50" height="50" rx="4" fill="#0074BF"/>
<path d="M24.83 38.2C17.622 38.2 11.8 32.5024 11.8 25.5C11.8 18.4975 17.622 12.8 24.83 12.8C32.038 12.8 37.86 18.4975 37.86 25.5C37.86 32.5024 32.038 38.2 24.83 38.2Z" fill="#0074BF" stroke="white"/>
<path d="M20.54 15.76C18.9936 15.76 17.74 14.5064 17.74 12.96C17.74 11.4136 18.9936 10.16 20.54 10.16C22.0864 10.16 23.34 11.4136 23.34 12.96C23.34 14.5064 22.0864 15.76 20.54 15.76Z" fill="#0074BF" stroke="white"/>
<circle cx="37.04" cy="22.86" r="2.8" transform="rotate(90 37.04 22.86)" fill="#0074BF" stroke="white"/>
<path d="M29.12 40.84C27.5736 40.84 26.32 39.5864 26.32 38.04C26.32 36.4936 27.5736 35.24 29.12 35.24C30.6664 35.24 31.92 36.4936 31.92 38.04C31.92 39.5864 30.6664 40.84 29.12 40.84Z" fill="#0074BF" stroke="white"/>
<path d="M12.62 31.6C11.0736 31.6 9.82001 30.3464 9.82001 28.8C9.82001 27.2536 11.0736 26 12.62 26C14.1664 26 15.42 27.2536 15.42 28.8C15.42 30.3464 14.1664 31.6 12.62 31.6Z" fill="#0074BF" stroke="white"/>
<g clip-path="url(#clip0_3_1057)">
<path d="M28.1837 25.4968C28.1837 27.1636 27.8131 28.6562 27.2305 29.7203C26.6412 30.7966 25.8811 31.3638 25.1209 31.3638C24.3608 31.3638 23.6006 30.7966 23.0113 29.7203C22.4287 28.6562 22.0581 27.1636 22.0581 25.4968C22.0581 23.8301 22.4287 22.3375 23.0113 21.2734C23.6006 20.197 24.3608 19.6299 25.1209 19.6299C25.8811 19.6299 26.6412 20.197 27.2305 21.2734C27.8131 22.3375 28.1837 23.8301 28.1837 25.4968Z" stroke="white" stroke-width="0.66" stroke-linejoin="round"/>
<line x1="19.9328" y1="22.4127" x2="30.2108" y2="22.4127" stroke="white" stroke-width="0.66" stroke-linejoin="round"/>
<line x1="18.923" y1="25.3963" x2="31.3172" y2="25.3746" stroke="white" stroke-width="0.66" stroke-linejoin="round"/>
<line x1="20.1357" y1="28.6638" x2="30.1062" y2="28.6638" stroke="white" stroke-width="0.66" stroke-linejoin="round"/>
<line x1="25.2211" y1="19.5295" x2="25.2211" y2="31.4645" stroke="white" stroke-width="0.66" stroke-linejoin="round"/>
<path d="M30.9876 25.4968C30.9876 28.7371 28.3608 31.3638 25.1206 31.3638C21.8804 31.3638 19.2536 28.7371 19.2536 25.4968C19.2536 22.2566 21.8804 19.6299 25.1206 19.6299C28.3608 19.6299 30.9876 22.2566 30.9876 25.4968Z" stroke="white" stroke-width="0.66" stroke-linejoin="round"/>
</g>
<defs>
<clipPath id="clip0_3_1057">
<rect width="13.5545" height="13.5545" fill="white" transform="translate(18.2975 18.6466) rotate(0.477469)"/>
</clipPath>
</defs>
</svg>
