<svg width="50" height="50" viewBox="0 0 50 50" fill="none" xmlns="http://www.w3.org/2000/svg">
<rect width="50" height="50" rx="4" fill="#0074BF"/>
<path d="M32.1976 25.4575L32.1976 25.4575L32.2002 25.4606C32.2302 25.4966 32.2479 25.535 32.2555 25.5719C32.263 25.6087 32.2612 25.6465 32.2496 25.6834L32.2495 25.6834L32.2474 25.6905C31.9843 26.5729 31.6017 27.4228 31.1081 28.2203C31.0826 28.2604 31.0455 28.2985 30.9965 28.3295C30.9479 28.3602 30.8901 28.3823 30.8268 28.3921L28.1359 28.743L27.9661 28.7652L27.8455 28.8868C27.7826 28.9502 27.7099 29.015 27.6259 29.0899C27.5772 29.1333 27.5247 29.1801 27.4682 29.2319L27.3388 29.3505L27.3119 29.5238L26.9293 31.9888C26.9218 32.0286 26.9044 32.0694 26.8755 32.1078C26.8458 32.1473 26.8043 32.1837 26.7516 32.2117C25.8764 32.6669 24.9418 33.0207 23.9694 33.2643L23.9694 33.2643L23.9632 33.2659C23.9045 33.2814 23.8418 33.2842 23.781 33.2737C23.7203 33.2633 23.6659 33.2403 23.6219 33.2094L23.6219 33.2094L23.6174 33.2063L21.4475 31.7195L21.3198 31.632H21.1649H20.5951H20.4402L20.3125 31.7195L18.1426 33.2063L18.1426 33.2062L18.1367 33.2104C18.075 33.2539 17.9934 33.2806 17.9051 33.2795V33.2795L17.9 33.2795C17.8649 33.2794 17.8303 33.2748 17.7973 33.2661L17.7974 33.266L17.7906 33.2643C16.8182 33.0207 15.8836 32.6669 15.0083 32.2117C14.9557 32.1837 14.9142 32.1473 14.8845 32.1078L14.485 32.4084L14.8845 32.1078C14.8556 32.0694 14.8382 32.0286 14.8306 31.9887L14.448 29.5335L14.421 29.3604L14.2918 29.242L13.8864 28.8703L13.77 28.7636L13.6134 28.7431L10.9333 28.3921C10.87 28.3823 10.8121 28.3602 10.7635 28.3295C10.7145 28.2985 10.6774 28.2605 10.6519 28.2204C10.1583 27.4228 9.77575 26.5729 9.51259 25.6905L9.51264 25.6905L9.51042 25.6834C9.4988 25.6464 9.49699 25.6087 9.50454 25.5719L9.01506 25.4713L9.50454 25.5719C9.51213 25.535 9.52976 25.4966 9.55977 25.4606L9.55979 25.4606L9.56315 25.4565L11.196 23.4574L11.3088 23.3194V23.1411V22.6288V22.4499L11.1952 22.3116L9.56236 20.3225L9.56238 20.3225L9.55977 20.3194C9.52976 20.2834 9.51213 20.245 9.50454 20.2081L9.01478 20.3087L9.50454 20.2081C9.49699 20.1713 9.4988 20.1336 9.51042 20.0966L9.51047 20.0966L9.51259 20.0895C9.77575 19.207 10.1583 18.3571 10.6519 17.5596C10.6774 17.5195 10.7146 17.4814 10.7635 17.4505L10.4963 17.0279L10.7635 17.4505C10.8121 17.4198 10.87 17.3977 10.9333 17.3879L13.6134 17.0369L13.77 17.0164L13.8864 16.9097L14.2918 16.538L14.421 16.4196L14.448 16.2465L14.8306 13.7913C14.8382 13.7514 14.8556 13.7106 14.8845 13.6722C14.9142 13.6327 14.9557 13.5963 15.0084 13.5683C15.8836 13.1131 16.8182 12.7593 17.7906 12.5157L17.7906 12.5157L17.7968 12.5141C17.8555 12.4986 17.9182 12.4958 17.979 12.5063L18.064 12.0138L17.979 12.5063C18.0397 12.5167 18.0941 12.5397 18.1381 12.5706L18.1381 12.5706L18.1426 12.5737L20.3125 14.0605L20.4402 14.148H20.5951H21.1649H21.3198L21.4475 14.0605L23.6174 12.5737L23.6174 12.5737L23.6219 12.5706C23.6659 12.5397 23.7203 12.5167 23.781 12.5063C23.8418 12.4958 23.9045 12.4986 23.9632 12.5141L23.9632 12.5141L23.9694 12.5157C24.9418 12.7593 25.8764 13.113 26.7516 13.5683C26.8042 13.5963 26.8458 13.6327 26.8755 13.6722C26.9044 13.7106 26.9218 13.7514 26.9294 13.7913L27.312 16.2465L27.339 16.4196L27.4682 16.538L27.8736 16.9097L27.99 17.0164L28.1466 17.0369L30.8267 17.3879C30.89 17.3977 30.9479 17.4198 30.9965 17.4505C31.0455 17.4815 31.0826 17.5196 31.1081 17.5597C31.6017 18.3572 31.9843 19.2071 32.2474 20.0895L32.2474 20.0895L32.2496 20.0966C32.2612 20.1335 32.263 20.1713 32.2555 20.2081C32.2479 20.245 32.2302 20.2834 32.2002 20.3194L32.2002 20.3194L32.1969 20.3235L30.564 22.3226L30.4512 22.4606V22.6389C30.4512 22.705 30.4526 22.7647 30.4539 22.8217C30.4563 22.9234 30.4585 23.0162 30.4521 23.1209L30.4403 23.3168L30.5648 23.4684L32.1976 25.4575ZM17.9399 26.9915C18.8136 27.5267 19.8366 27.8101 20.88 27.8101C22.2781 27.8101 23.6267 27.3014 24.6275 26.3841C25.6296 25.4654 26.2019 24.2096 26.2019 22.89C26.2019 21.9067 25.8836 20.9496 25.2933 20.1398C24.7035 19.3307 23.87 18.7062 22.9028 18.3389C21.9357 17.9718 20.8737 17.8762 19.8496 18.063C18.8254 18.2497 17.8792 18.7115 17.1325 19.396C16.3855 20.0808 15.8711 20.9588 15.6621 21.9217C15.4531 22.885 15.5609 23.883 15.9695 24.7874C16.3778 25.691 17.066 26.4562 17.9399 26.9915Z" fill="#0074BF" stroke="white"/>
<circle cx="28.0492" cy="27.3371" r="5.77" transform="rotate(-45 28.0492 27.3371)" fill="#0074BF" stroke="white"/>
<rect x="32.016" y="32.0035" width="0.99" height="3.11859" transform="rotate(-45 32.016 32.0035)" fill="#0074BF" stroke="white" stroke-width="0.99"/>
<mask id="path-5-inside-1_3_1017" fill="white">
<path d="M33.0421 34.6635L35.3755 32.3301L39.9254 36.88C40.5698 37.5244 40.5698 38.5691 39.9254 39.2134C39.2811 39.8578 38.2363 39.8578 37.592 39.2134L33.0421 34.6635Z"/>
</mask>
<path d="M33.0421 34.6635L35.3755 32.3301L39.9254 36.88C40.5698 37.5244 40.5698 38.5691 39.9254 39.2134C39.2811 39.8578 38.2363 39.8578 37.592 39.2134L33.0421 34.6635Z" fill="#0074BF"/>
<path d="M33.0421 34.6635L32.3349 33.9564L31.6278 34.6635L32.3349 35.3706L33.0421 34.6635ZM35.3755 32.3301L36.0826 31.623L35.3755 30.9158L34.6684 31.623L35.3755 32.3301ZM33.7492 35.3706L36.0826 33.0372L34.6684 31.623L32.3349 33.9564L33.7492 35.3706ZM34.6684 33.0372L39.2183 37.5871L40.6325 36.1729L36.0826 31.623L34.6684 33.0372ZM38.2991 38.5063L33.7492 33.9564L32.3349 35.3706L36.8849 39.9205L38.2991 38.5063ZM39.2183 38.5063C38.9645 38.7602 38.5529 38.7602 38.2991 38.5063L36.8849 39.9205C37.9198 40.9554 39.5977 40.9554 40.6325 39.9205L39.2183 38.5063ZM39.2183 37.5871C39.4722 37.8409 39.4722 38.2525 39.2183 38.5063L40.6325 39.9205C41.6674 38.8857 41.6674 37.2078 40.6325 36.1729L39.2183 37.5871Z" fill="white" mask="url(#path-5-inside-1_3_1017)"/>
</svg>
