<svg width="50" height="50" viewBox="0 0 50 50" fill="none" xmlns="http://www.w3.org/2000/svg">
<rect width="50" height="50" rx="4" fill="#0074BF"/>
<mask id="path-2-inside-1_3_1027" fill="white">
<path d="M32.1092 24.7566C32.1092 23.7139 31.9225 22.6814 31.5598 21.7181C31.197 20.7547 30.6653 19.8794 29.9951 19.1421C29.3248 18.4048 28.5291 17.82 27.6533 17.4209C26.7776 17.0219 25.8389 16.8165 24.891 16.8165C23.9431 16.8165 23.0045 17.0219 22.1287 17.4209C21.253 17.82 20.4572 18.4048 19.787 19.1421C19.1167 19.8794 18.585 20.7547 18.2222 21.7181C17.8595 22.6814 17.6728 23.7139 17.6728 24.7566L32.1092 24.7566Z"/>
</mask>
<path d="M32.1092 24.7566L32.1092 25.7566H33.1092V24.7566H32.1092ZM31.5598 21.7181L32.4956 21.3657L31.5598 21.7181ZM24.891 16.8165L24.891 17.8165L24.891 16.8165ZM19.787 19.1421L19.047 18.4694V18.4694L19.787 19.1421ZM18.2222 21.7181L17.2864 21.3657H17.2864L18.2222 21.7181ZM17.6728 24.7566L16.6728 24.7566L16.6728 25.7566H17.6728L17.6728 24.7566ZM33.1092 24.7566C33.1092 23.5951 32.9014 22.4431 32.4956 21.3657L30.6239 22.0705C30.9437 22.9197 31.1092 23.8327 31.1092 24.7566H33.1092ZM32.4956 21.3657C32.0899 20.2881 31.493 19.3033 30.735 18.4694L29.2551 19.8148C29.8377 20.4556 30.3042 21.2213 30.6239 22.0705L32.4956 21.3657ZM30.735 18.4694C29.9768 17.6354 29.0715 16.9682 28.0679 16.5109L27.2387 18.3309C27.9866 18.6717 28.6728 19.1742 29.2551 19.8148L30.735 18.4694ZM28.0679 16.5109C27.0641 16.0535 25.9842 15.8165 24.891 15.8165L24.891 17.8165C25.6936 17.8165 26.4911 17.9903 27.2387 18.3309L28.0679 16.5109ZM24.891 15.8165C23.7978 15.8165 22.718 16.0535 21.7141 16.5109L22.5433 18.3309C23.291 17.9903 24.0884 17.8165 24.891 17.8165L24.891 15.8165ZM21.7141 16.5109C20.7105 16.9682 19.8052 17.6354 19.047 18.4694L20.5269 19.8148C21.1093 19.1742 21.7954 18.6717 22.5433 18.3309L21.7141 16.5109ZM19.047 18.4694C18.289 19.3033 17.6921 20.2881 17.2864 21.3657L19.1581 22.0705C19.4778 21.2213 19.9444 20.4556 20.5269 19.8148L19.047 18.4694ZM17.2864 21.3657C16.8807 22.4431 16.6728 23.5951 16.6728 24.7566L18.6728 24.7566C18.6728 23.8327 18.8383 22.9197 19.1581 22.0705L17.2864 21.3657ZM17.6728 25.7566L32.1092 25.7566L32.1092 23.7566L17.6728 23.7566L17.6728 25.7566Z" fill="white" mask="url(#path-2-inside-1_3_1027)"/>
<circle cx="24.891" cy="13.9292" r="3.10911" stroke="white"/>
<mask id="path-5-inside-2_3_1027" fill="white">
<path d="M23.2328 41.1439C23.2328 40.3599 23.0955 39.5836 22.8288 38.8594C22.5622 38.1351 22.1713 37.477 21.6786 36.9227C21.1858 36.3683 20.6009 35.9286 19.9571 35.6286C19.3133 35.3286 18.6232 35.1742 17.9264 35.1742C17.2296 35.1742 16.5395 35.3286 15.8957 35.6286C15.2519 35.9286 14.667 36.3683 14.1742 36.9227C13.6815 37.477 13.2906 38.1351 13.0239 38.8594C12.7573 39.5836 12.62 40.3599 12.62 41.1439L23.2328 41.1439Z"/>
</mask>
<path d="M23.2328 41.1439V42.1439H24.2328V41.1439H23.2328ZM22.8288 38.8594L23.7673 38.5139L22.8288 38.8594ZM17.9264 35.1742V36.1742V35.1742ZM14.1742 36.9227L13.4268 36.2583L13.4268 36.2583L14.1742 36.9227ZM13.0239 38.8594L12.0855 38.5139H12.0855L13.0239 38.8594ZM12.62 41.1439H11.62L11.62 42.1439H12.62L12.62 41.1439ZM24.2328 41.1439C24.2328 40.2439 24.0753 39.3505 23.7673 38.5139L21.8904 39.2049C22.1157 39.8168 22.2328 40.4759 22.2328 41.1439H24.2328ZM23.7673 38.5139C23.4592 37.6771 23.0051 36.9098 22.426 36.2583L20.9312 37.587C21.3375 38.0442 21.6652 38.5931 21.8904 39.2049L23.7673 38.5139ZM22.426 36.2583C21.8466 35.6066 21.1524 35.0824 20.3794 34.7222L19.5347 36.535C20.0493 36.7748 20.525 37.1301 20.9312 37.587L22.426 36.2583ZM20.3794 34.7222C19.606 34.3618 18.772 34.1742 17.9264 34.1742V36.1742C18.4744 36.1742 19.0205 36.2954 19.5347 36.535L20.3794 34.7222ZM17.9264 34.1742C17.0807 34.1742 16.2468 34.3618 15.4734 34.7222L16.3181 36.535C16.8323 36.2954 17.3784 36.1742 17.9264 36.1742V34.1742ZM15.4734 34.7222C14.7004 35.0824 14.0062 35.6066 13.4268 36.2583L14.9216 37.587C15.3278 37.1301 15.8035 36.7748 16.3181 36.535L15.4734 34.7222ZM13.4268 36.2583C12.8477 36.9098 12.3936 37.6771 12.0855 38.5139L13.9624 39.2049C14.1876 38.5931 14.5153 38.0442 14.9216 37.587L13.4268 36.2583ZM12.0855 38.5139C11.7775 39.3505 11.62 40.2439 11.62 41.1439H13.62C13.62 40.4759 13.7371 39.8168 13.9624 39.2049L12.0855 38.5139ZM12.62 42.1439L23.2328 42.1439V40.1439L12.62 40.1439L12.62 42.1439Z" fill="white" mask="url(#path-5-inside-2_3_1027)"/>
<circle cx="17.9264" cy="33.1844" r="2.15319" stroke="white"/>
<mask id="path-8-inside-3_3_1027" fill="white">
<path d="M36.9474 41.1439C36.9474 40.36 36.8101 39.5837 36.5434 38.8594C36.2768 38.1352 35.8859 37.4771 35.3932 36.9227C34.9004 36.3684 34.3155 35.9287 33.6717 35.6287C33.0279 35.3287 32.3378 35.1743 31.641 35.1743C30.9442 35.1743 30.2541 35.3287 29.6103 35.6287C28.9665 35.9287 28.3816 36.3684 27.8888 36.9227C27.3961 37.4771 27.0052 38.1352 26.7385 38.8594C26.4719 39.5837 26.3346 40.36 26.3346 41.1439L36.9474 41.1439Z"/>
</mask>
<path d="M36.9474 41.1439V42.1439H37.9474V41.1439H36.9474ZM36.5434 38.8594L37.4819 38.5139L36.5434 38.8594ZM31.641 35.1743V36.1743V35.1743ZM27.8888 36.9227L27.1414 36.2584L27.1414 36.2584L27.8888 36.9227ZM26.7385 38.8594L25.8001 38.5139H25.8001L26.7385 38.8594ZM26.3346 41.1439H25.3346L25.3346 42.1439H26.3346L26.3346 41.1439ZM37.9474 41.1439C37.9474 40.244 37.7899 39.3506 37.4819 38.5139L35.605 39.2049C35.8303 39.8168 35.9474 40.476 35.9474 41.1439H37.9474ZM37.4819 38.5139C37.1738 37.6772 36.7197 36.9099 36.1406 36.2584L34.6458 37.5871C35.0521 38.0442 35.3798 38.5931 35.605 39.2049L37.4819 38.5139ZM36.1406 36.2584C35.5612 35.6066 34.867 35.0825 34.094 34.7223L33.2493 36.5351C33.7639 36.7749 34.2396 37.1302 34.6458 37.5871L36.1406 36.2584ZM34.094 34.7223C33.3206 34.3618 32.4866 34.1743 31.641 34.1743V36.1743C32.189 36.1743 32.7351 36.2955 33.2493 36.5351L34.094 34.7223ZM31.641 34.1743C30.7953 34.1743 29.9614 34.3618 29.188 34.7223L30.0327 36.5351C30.5469 36.2955 31.093 36.1743 31.641 36.1743V34.1743ZM29.188 34.7223C28.415 35.0825 27.7208 35.6066 27.1414 36.2584L28.6362 37.5871C29.0424 37.1302 29.5181 36.7749 30.0327 36.5351L29.188 34.7223ZM27.1414 36.2584C26.5623 36.9099 26.1082 37.6772 25.8001 38.5139L27.677 39.2049C27.9022 38.5931 28.2299 38.0442 28.6362 37.5871L27.1414 36.2584ZM25.8001 38.5139C25.4921 39.3506 25.3346 40.244 25.3346 41.1439H27.3346C27.3346 40.476 27.4517 39.8168 27.677 39.2049L25.8001 38.5139ZM26.3346 42.1439L36.9474 42.1439V40.1439L26.3346 40.1439L26.3346 42.1439Z" fill="white" mask="url(#path-8-inside-3_3_1027)"/>
<circle cx="31.641" cy="33.1844" r="2.15319" stroke="white"/>
<line x1="26.7819" y1="25.9766" x2="28.2255" y2="28.8639" stroke="white"/>
<line y1="-0.5" x2="3.22809" y2="-0.5" transform="matrix(-0.447214 0.894427 0.894427 0.447214 23.4474 26.2002)" stroke="white"/>
</svg>
