<svg width="50" height="50" viewBox="0 0 50 50" fill="none" xmlns="http://www.w3.org/2000/svg">
<rect width="50" height="50" rx="4" fill="#0074BF"/>
<g clip-path="url(#clip0_3_1245)">
<circle cx="24.3507" cy="26.3493" r="16.1507" stroke="white" stroke-dasharray="2.1 4.2"/>
<circle cx="24.3506" cy="27.0579" r="10.8691" stroke="white"/>
<path d="M30.0749 27.0579C30.0749 30.1299 29.3921 32.8863 28.3132 34.8569C27.2242 36.846 25.8015 37.927 24.3505 37.927C22.8994 37.927 21.4767 36.846 20.3877 34.8569C19.3088 32.8863 18.626 30.1299 18.626 27.0579C18.626 23.9859 19.3088 21.2294 20.3877 19.2588C21.4767 17.2697 22.8994 16.1888 24.3505 16.1888C25.8015 16.1888 27.2242 17.2697 28.3132 19.2588C29.3921 21.2294 30.0749 23.9859 30.0749 27.0579Z" stroke="white"/>
<line x1="15.2047" y1="20.9051" x2="33.4969" y2="20.9051" stroke="white"/>
<line x1="13.3628" y1="26.9388" x2="35.7199" y2="26.9388" stroke="white"/>
<line x1="15.2047" y1="32.9728" x2="33.4969" y2="32.9728" stroke="white"/>
<line x1="24.4694" y1="15.6888" x2="24.4694" y2="37.9824" stroke="white"/>
<path d="M18.9493 10.7877L15.7913 8.92613L15.2186 9.21913L17.2437 11.7835L18.9493 10.7877Z" fill="white"/>
<path d="M19.5088 11.9301L19.2149 15.619L18.6422 15.912L17.6419 12.6646L19.5088 11.9301Z" fill="white"/>
<path d="M15.846 14.7173L15.964 13.3297L15.2937 13.6085L15.6073 14.8394L15.846 14.7173Z" fill="white"/>
<path d="M14.4524 11.9429L15.6467 12.6591L15.0137 13.0106L14.2137 12.065L14.4524 11.9429Z" fill="white"/>
<path d="M20.2403 9.93578C20.7816 9.62591 21.649 9.45883 21.9758 9.99015C22.3275 10.562 21.5743 11.2455 20.9487 11.4892L15.0019 13.8052C14.8117 13.8793 14.5969 13.7899 14.5155 13.6027C14.4381 13.425 14.5069 13.2175 14.6752 13.1212L20.2403 9.93578Z" fill="white"/>
</g>
<defs>
<clipPath id="clip0_3_1245">
<rect width="35" height="35" fill="white" transform="translate(7 8)"/>
</clipPath>
</defs>
</svg>
