<svg width="50" height="50" viewBox="0 0 50 50" fill="none" xmlns="http://www.w3.org/2000/svg">
<rect width="50" height="50" rx="4" fill="#0074BF"/>
<path d="M15.0778 15.92L25.82 15.9507L25.82 25.16C22.2487 25.16 18.6491 25.16 15.0494 25.1293L11.96 20.5247C12.9803 18.9898 14.0007 17.4549 14.9927 15.92L15.0494 15.92L15.0778 15.92Z" fill="#0074BF"/>
<path d="M34.4337 21.8601L23.18 21.8294V12.6201C26.9213 12.6201 30.6924 12.6201 34.4634 12.6508L37.7 17.2555C36.631 18.7903 35.562 20.3252 34.5228 21.8601H34.4634H34.4337Z" fill="#0074BF"/>
<line x1="25" y1="11.3" x2="25" y2="37.7" stroke="white"/>
<path d="M25.98 15.1001H12.7269L10.5303 19.8801L12.7269 24.6601H25.98V15.1001Z" fill="#0074BF" stroke="white"/>
<path d="M23.02 13.1201H35.7132L37.8074 17.5701L35.7132 22.0201H23.02V13.1201Z" fill="#0074BF" stroke="white"/>
</svg>
