<svg width="50" height="50" viewBox="0 0 50 50" fill="none" xmlns="http://www.w3.org/2000/svg">
<rect width="50" height="50" rx="4" fill="#0074BF"/>
<path d="M28.9451 31.7132C28.9451 34.2947 28.3711 36.6071 27.4683 38.2562C26.5553 39.9238 25.3757 40.806 24.1932 40.806C23.0107 40.806 21.8311 39.9238 20.9181 38.2562C20.0153 36.6071 19.4413 34.2947 19.4413 31.7132C19.4413 29.1318 20.0153 26.8194 20.9181 25.1703C21.8311 23.5027 23.0107 22.6205 24.1932 22.6205C25.3757 22.6205 26.5553 23.5027 27.4683 25.1703C28.3711 26.8194 28.9451 29.1318 28.9451 31.7132Z" stroke="white" stroke-linejoin="round"/>
<line x1="16.1621" y1="26.9498" x2="32.0722" y2="26.9498" stroke="white" stroke-linejoin="round"/>
<line x1="14.5991" y1="31.5685" x2="33.7848" y2="31.5349" stroke="white" stroke-linejoin="round"/>
<line x1="16.4762" y1="36.6265" x2="31.9103" y2="36.6265" stroke="white" stroke-linejoin="round"/>
<line x1="24.3374" y1="22.476" x2="24.3374" y2="40.9509" stroke="white" stroke-linejoin="round"/>
<circle cx="24.1927" cy="31.7132" r="9.0927" stroke="white" stroke-linejoin="round"/>
<path d="M23.934 29.46L23.5922 29.8249L23.934 30.1452L24.2759 29.8249L23.934 29.46ZM23.934 29.46C24.2759 29.8249 24.276 29.8248 24.2761 29.8247L24.2765 29.8243L24.2777 29.8231L24.2822 29.8189L24.2989 29.8031C24.3134 29.7894 24.3345 29.7692 24.3619 29.7429C24.4167 29.6904 24.4963 29.6131 24.5973 29.5134C24.7993 29.3139 25.0868 29.0241 25.4313 28.6605C26.1199 27.9338 27.039 26.9094 27.9594 25.72C28.8787 24.532 29.8068 23.1696 30.507 21.7671C31.2044 20.3702 31.694 18.8972 31.694 17.4975C31.694 15.4595 30.875 13.506 29.4191 12.0667C27.9634 10.6275 25.9903 9.82001 23.934 9.82001C21.8778 9.82001 19.9046 10.6275 18.4489 12.0667C16.993 13.506 16.174 15.4595 16.174 17.4975C16.174 18.8972 16.6637 20.3702 17.361 21.7671C18.0612 23.1696 18.9893 24.532 19.9086 25.72C20.829 26.9094 21.7481 27.9338 22.4367 28.6605C22.7812 29.0241 23.0687 29.3139 23.2707 29.5134C23.3717 29.6131 23.4514 29.6904 23.5061 29.7429C23.5335 29.7692 23.5546 29.7894 23.5691 29.8031L23.5858 29.8189L23.5903 29.8231L23.5916 29.8243L23.5919 29.8247C23.5921 29.8248 23.5922 29.8249 23.934 29.46ZM23.934 20.5863C23.1021 20.5863 22.3053 20.2595 21.7187 19.6796C21.1324 19.0999 20.804 18.3148 20.804 17.4975C20.804 16.6802 21.1324 15.8951 21.7187 15.3154C22.3053 14.7355 23.1021 14.4088 23.934 14.4088C24.766 14.4088 25.5627 14.7355 26.1493 15.3154C26.7356 15.8951 27.064 16.6802 27.064 17.4975C27.064 18.3148 26.7356 19.0999 26.1493 19.6796C25.5627 20.2595 24.766 20.5863 23.934 20.5863Z" fill="#0074BF" stroke="white"/>
</svg>
